mtllib plane2.mtl
o frontnurbsCube1
v 46.529579 0.000000 -0.928338
v 46.529579 50.000000 0.928331
v 46.529579 0.000000 0.928328
v 46.529579 50.000000 -0.928331
v 46.529579 100.000000 0.928338
v 46.529579 100.000000 -0.928328
vt 0.0000 0.0000
vt 0.5000 1.0000
vt 0.0000 1.0000
vt 0.5000 0.0000
vt 1.0000 1.0000
vt 1.0000 0.0000
vn 1.0000 0.0000 0.0000
usemtl lambert1
s 1
f 1/1/1 2/2/1 3/3/1
f 1/1/1 4/4/1 2/2/1
f 4/4/1 5/5/1 2/2/1
f 4/4/1 6/6/1 5/5/1
o topnurbsCube1
v -46.529579 0.000000 0.928329
v -0.000002 100.000000 0.928333
v -46.529579 100.000000 0.928333
v -0.000002 0.000000 0.928329
v 46.529579 100.000000 0.928333
v 46.529579 0.000000 0.928329
vt 0.0000 0.0000
vt 0.5000 1.0000
vt 0.0000 1.0000
vt 0.5000 0.0000
vt 1.0000 1.0000
vt 1.0000 0.0000
vn 0.0000 -0.0000 1.0000
usemtl lambert1
s 1
f 7/7/2 8/8/2 9/9/2
f 7/7/2 10/10/2 8/8/2
f 10/10/2 11/11/2 8/8/2
f 10/10/2 12/12/2 11/11/2
o leftnurbsCube1
v -46.529579 0.000000 -0.928335
v -0.000002 -0.000000 0.928327
v -46.529579 -0.000000 0.928327
v -0.000002 0.000000 -0.928335
v 46.529579 -0.000000 0.928327
v 46.529579 0.000000 -0.928335
vt 0.0000 0.0000
vt 0.5000 1.0000
vt 0.0000 1.0000
vt 0.5000 0.0000
vt 1.0000 1.0000
vt 1.0000 0.0000
vn 0.0000 -1.0000 -0.0000
usemtl lambert1
s 1
f 13/13/3 14/14/3 15/15/3
f 13/13/3 16/16/3 14/14/3
f 16/16/3 17/17/3 14/14/3
f 16/16/3 18/18/3 17/17/3
o bottomnurbsCube1
v -46.529579 0.000000 -0.928333
v 46.529579 50.000000 -0.928331
v 46.529579 0.000000 -0.928333
v -46.529579 50.000000 -0.928331
v 46.529579 100.000000 -0.928329
v -46.529579 100.000000 -0.928329
vt 0.0000 0.0000
vt 0.5000 1.0000
vt 0.0000 1.0000
vt 0.5000 0.0000
vt 1.0000 1.0000
vt 1.0000 0.0000
vn 0.0000 0.0000 -1.0000
usemtl lambert1
s 1
f 19/19/4 20/20/4 21/21/4
f 19/19/4 22/22/4 20/20/4
f 22/22/4 23/23/4 20/20/4
f 22/22/4 24/24/4 23/23/4
o backnurbsCube1
v -46.529579 0.000000 -0.928338
v -46.529579 100.000000 0.000002
v -46.529579 100.000000 -0.928328
v -46.529579 0.000000 -0.000002
v -46.529579 100.000000 0.928338
v -46.529579 0.000000 0.928328
vt 0.0000 0.0000
vt 0.5000 1.0000
vt 0.0000 1.0000
vt 0.5000 0.0000
vt 1.0000 1.0000
vt 1.0000 0.0000
vn -1.0000 -0.0000 0.0000
usemtl lambert1
s 1
f 25/25/5 26/26/5 27/27/5
f 25/25/5 28/28/5 26/26/5
f 28/28/5 29/29/5 26/26/5
f 28/28/5 30/30/5 29/29/5
o rightnurbsCube1
v -46.529579 100.000000 -0.928327
v 46.529579 100.000000 0.000004
v 46.529579 100.000000 -0.928327
v -46.529579 100.000000 0.000004
v 46.529579 100.000000 0.928335
v -46.529579 100.000000 0.928335
vt 0.0000 0.0000
vt 0.5000 1.0000
vt 0.0000 1.0000
vt 0.5000 0.0000
vt 1.0000 1.0000
vt 1.0000 0.0000
vn 0.0000 1.0000 0.0000
usemtl lambert1
s 1
f 31/31/6 32/32/6 33/33/6
f 31/31/6 34/34/6 32/32/6
f 34/34/6 35/35/6 32/32/6
f 34/34/6 36/36/6 35/35/6
