mtllib tree.mtl
o lowpolytree_Mesh
v 0.564167 100.000000 0.087854
v 0.749620 100.000000 0.156178
v 0.495843 85.152069 -5.313700
v 4.089720 85.152069 -4.005773
v 0.849179 100.000000 0.327967
v 5.893492 83.914421 -0.812080
v 0.815993 100.000000 0.523180
v 5.339086 85.152069 3.076569
v 0.663726 100.000000 0.652019
v 2.408933 85.152069 5.536257
v 0.464609 100.000000 0.652019
v -1.526568 83.914421 5.415223
v 0.312342 100.000000 0.523180
v -4.349352 85.152069 3.076569
v 0.277204 100.000000 0.327967
v -5.013077 85.152069 -0.691049
v 0.376763 100.000000 0.156178
v -3.209307 83.914421 -4.124852
v -12.573691 16.179283 -14.248622
v 0.083943 21.204075 -18.693628
v -19.140669 17.414989 -2.563148
v -16.823486 17.414989 10.588375
v 12.630305 21.204075 -14.127587
v 19.308552 17.414989 -2.563148
v 16.989418 17.414989 10.588375
v 6.760240 21.204075 19.171909
v -6.703626 19.966421 19.050875
v -16.655603 28.153677 -2.192242
v -10.929994 26.917973 -12.419469
v -22.504194 16.411587 -3.287389
v -14.777651 15.175888 -16.977699
v 0.054661 16.411587 -22.217230
v 0.144459 28.153673 -16.290548
v -14.629288 28.153673 9.299968
v -19.782921 16.411591 12.144226
v -7.888571 15.175888 22.096201
v -5.799788 26.917974 16.679033
v 5.979386 28.153673 16.800064
v 7.890524 16.411587 22.217230
v 14.918205 28.153673 9.299968
v 19.894190 16.411591 12.144226
v 22.504194 15.175888 -3.408421
v 16.946470 28.153677 -2.192242
v 11.111544 28.153673 -12.298438
v 14.779604 16.411587 -16.856670
v -2.992620 86.130089 -0.158116
v -1.895521 84.892441 -2.369883
v -8.997382 70.052315 -1.286451
v -5.844687 68.814667 -7.060862
v 0.398236 70.052315 -9.171117
v 0.482178 86.130089 -3.074604
v -2.572911 86.130089 2.217631
v -7.865145 70.052315 5.141926
v -2.975051 68.814667 9.216029
v -0.833560 84.892441 3.648546
v 1.688596 86.130089 3.769575
v 3.662203 70.052315 9.337061
v 8.661616 70.052315 5.141926
v 3.539219 86.130089 2.217631
v 9.686487 68.814667 -1.407482
v 3.956975 86.130089 -0.158116
v 2.750557 86.130089 -2.248852
v 6.531840 70.052315 -6.939829
v 0.292821 53.455276 -13.454101
v 0.394332 71.077187 -6.506456
v 9.243353 53.455276 -10.197940
v 4.921329 71.077187 -4.858854
v 7.330262 71.077187 -0.687144
v 13.895287 52.219574 -2.069256
v 12.351151 53.455276 7.431778
v 6.492797 71.077187 4.056539
v 2.803264 71.077187 7.152625
v 5.054074 53.455276 13.553669
v -2.123920 69.841492 7.031591
v -4.579704 52.219574 13.432637
v -11.765507 53.455276 7.431778
v -5.704133 71.077187 4.056539
v -6.539647 71.077187 -0.687144
v -13.420918 53.455276 -1.948224
v -8.767030 52.219574 -10.318973
v -4.240033 69.841492 -4.979887
v -10.453673 54.472340 -1.268881
v -6.828562 53.234684 -7.857333
v -16.680981 38.542927 -2.418689
v -10.929994 37.307228 -12.692769
v 0.197166 38.542931 -16.581419
v 0.298677 54.472336 -10.291643
v -9.157457 54.472336 6.084805
v -14.646856 38.542927 9.128181
v -5.774410 37.307224 16.542385
v -3.545074 53.234684 10.764070
v 4.031157 54.472336 10.885102
v 6.059423 38.542927 16.663418
v 9.752859 54.472336 6.084805
v 15.041190 38.542927 9.128181
v 16.965992 37.307228 -2.539721
v 11.049075 54.472340 -1.268881
v 7.316597 54.472340 -7.736301
v 11.215008 38.542927 -12.571737
v 0.122985 26.992153 -19.820007
v 0.210831 39.669312 -13.664931
v 13.266701 26.992153 -15.037282
v 9.450279 39.669308 -10.303354
v 14.365751 39.669308 -1.788149
v 20.151873 25.754498 -3.043372
v 17.832739 26.992153 10.851914
v 12.657635 39.669308 7.892481
v 5.128255 39.669308 14.211539
v 7.117480 26.992153 19.841492
v -4.813960 38.433605 14.092459
v -6.980829 25.754498 19.722408
v -17.584818 26.992153 10.851914
v -12.234018 39.669308 7.892481
v -13.942137 39.669308 -1.788149
v -20.013269 26.992153 -2.922340
v -13.130049 25.754498 -15.158313
v -9.135983 38.433609 -10.424388
v -0.179595 11.345806 -5.516728
v -0.179595 22.945379 -7.636744
v 3.338149 11.345806 -4.238080
v 4.700738 22.945379 -5.862252
v 5.208292 11.345806 -0.997536
v 7.297076 22.945379 -1.364537
v 4.558233 11.345806 2.688092
v 6.395190 22.945379 3.748100
v 1.692501 11.345806 5.095072
v 2.416742 22.945379 7.086248
v -2.049739 11.345806 5.095072
v -2.775933 22.945379 7.086248
v -4.917422 11.345806 2.688092
v -6.752429 22.945379 3.748100
v -5.567483 11.345806 -0.997536
v -7.654315 22.945379 -1.364537
v -5.057976 22.945379 -5.862252
v -3.695388 11.345806 -4.238080
v -0.179595 0.000000 -7.636744
v 4.700738 0.000000 -5.862254
v -5.057976 0.000000 -5.862254
v 7.297076 0.000000 -1.364537
v 6.395190 0.000000 3.748100
v 2.416742 0.000000 7.086248
v -2.775933 0.000000 7.086248
v -6.752429 0.000000 3.748100
v -7.654315 0.000000 -1.364537
vn 0.3238 0.3221 -0.8896
vn 0.3238 0.3222 -0.8896
vn 0.8730 0.3022 -0.3827
vn 0.9536 0.2971 0.0477
vn 0.6109 0.3112 0.7280
vn 0.6110 0.3113 0.7278
vn 0.6110 0.3113 0.7279
vn -0.1164 0.2965 0.9479
vn -0.5313 0.3015 0.7917
vn -0.9327 0.3210 0.1645
vn -0.9327 0.3209 0.1647
vn -0.9327 0.3209 0.1648
vn 0.0000 1.0000 0.0000
vn 0.0000 1.0000 -0.0001
vn -0.3809 0.3169 -0.8686
vn -0.7898 0.3166 -0.5253
vn 0.0415 -0.9991 0.0024
vn -0.7667 0.4310 -0.4757
vn -0.7668 0.4311 -0.4756
vn -0.3356 0.4304 -0.8379
vn -0.3358 0.4303 -0.8379
vn -0.3357 0.4304 -0.8379
vn -0.8898 0.4285 0.1569
vn -0.8898 0.4286 0.1569
vn -0.5511 0.4230 0.7193
vn -0.5510 0.4228 0.7195
vn -0.0455 0.4187 0.9070
vn -0.0456 0.4187 0.9070
vn -0.0456 0.4186 0.9070
vn 0.5844 0.4164 0.6965
vn 0.5844 0.4164 0.6964
vn 0.9079 0.3960 0.1376
vn 0.9078 0.3961 0.1377
vn 0.8023 0.4025 -0.4408
vn 0.3094 0.4266 -0.8499
vn -0.7838 0.3370 -0.5217
vn -0.3783 0.3367 -0.8623
vn -0.9279 0.3351 0.1636
vn -0.9279 0.3351 0.1635
vn -0.9278 0.3351 0.1638
vn -0.9279 0.3351 0.1634
vn -0.5277 0.3288 0.7832
vn -0.1127 0.3256 0.9388
vn 0.6078 0.3254 0.7243
vn 0.6076 0.3255 0.7245
vn 0.6078 0.3254 0.7244
vn 0.9437 0.3122 0.1093
vn 0.8444 0.3173 -0.4317
vn 0.3222 0.3342 -0.8857
vn 0.3224 0.3342 -0.8857
vn 0.3224 0.3342 -0.8856
vn 0.3208 0.3458 -0.8818
vn 0.3209 0.3458 -0.8817
vn 0.8325 0.3304 -0.4447
vn 0.9366 0.3260 0.1283
vn 0.6047 0.3391 0.7206
vn 0.6047 0.3391 0.7207
vn 0.6047 0.3390 0.7207
vn -0.0735 0.3409 0.9372
vn -0.5534 0.3441 0.7585
vn -0.9230 0.3486 0.1626
vn -0.9230 0.3487 0.1627
vn -0.9230 0.3487 0.1628
vn -0.9230 0.3488 0.1629
vn -0.3579 0.3490 -0.8661
vn -0.7906 0.3500 -0.5024
vn -0.7957 0.3507 -0.4939
vn -0.3486 0.3496 -0.8696
vn -0.9229 0.3491 0.1627
vn -0.9229 0.3491 0.1626
vn -0.9228 0.3492 0.1629
vn -0.5664 0.3446 0.7486
vn -0.5663 0.3446 0.7487
vn -0.5664 0.3446 0.7487
vn -0.0551 0.3408 0.9385
vn 0.6048 0.3385 0.7209
vn 0.9359 0.3243 0.1375
vn 0.8290 0.3293 -0.4520
vn 0.3209 0.3461 -0.8816
vn 0.3210 0.3462 -0.8816
vn 0.3114 0.4133 -0.8557
vn 0.3113 0.4133 -0.8557
vn 0.8077 0.3910 -0.4412
vn 0.9129 0.3849 0.1357
vn 0.9129 0.3850 0.1358
vn 0.5881 0.4037 0.7008
vn 0.5881 0.4036 0.7009
vn -0.0509 0.4056 0.9126
vn -0.5513 0.4096 0.7268
vn -0.5514 0.4097 0.7267
vn -0.8959 0.4151 0.1581
vn -0.8960 0.4150 0.1580
vn -0.3404 0.4168 -0.8429
vn -0.3405 0.4167 -0.8428
vn -0.7708 0.4174 -0.4812
vn -0.7708 0.4173 -0.4813
vn -0.7708 0.4173 -0.4814
vn 0.1824 -0.8628 0.4715
vn 0.4346 -0.8567 0.2778
vn 0.4509 -0.8890 -0.0797
vn 0.4511 -0.8889 -0.0796
vn 0.4511 -0.8889 -0.0795
vn 0.4512 -0.8889 -0.0795
vn 0.0338 -0.8164 -0.5765
vn 0.3326 -0.8240 -0.4586
vn -0.3050 -0.8803 -0.3633
vn -0.3048 -0.8804 -0.3633
vn -0.3049 -0.8804 -0.3633
vn -0.6502 -0.7582 0.0485
vn -0.6189 -0.7661 0.1734
vn -0.1439 -0.9072 0.3954
vn -0.1439 -0.9072 0.3953
vn -0.1294 -0.9256 0.3558
vn -0.1295 -0.9255 0.3560
vn -0.5359 -0.8196 0.2028
vn -0.5873 -0.8093 -0.0082
vn -0.2691 -0.9081 -0.3208
vn -0.2691 -0.9082 -0.3207
vn -0.2692 -0.9081 -0.3208
vn -0.2689 -0.9083 -0.3204
vn 0.1984 -0.8870 -0.4170
vn 0.1989 -0.8870 -0.4168
vn 0.1156 -0.8858 -0.4495
vn 0.3987 -0.9144 -0.0703
vn 0.3985 -0.9145 -0.0702
vn 0.3033 -0.9077 0.2901
vn 0.2296 -0.9091 0.3477
vn 0.2137 -0.9379 0.2733
vn 0.2322 -0.9377 0.2586
vn 0.3360 -0.9400 -0.0592
vn 0.3359 -0.9400 -0.0592
vn 0.3358 -0.9401 -0.0593
vn 0.1208 -0.9255 -0.3590
vn 0.1379 -0.9257 -0.3523
vn -0.2264 -0.9359 -0.2699
vn -0.2263 -0.9360 -0.2696
vn -0.5129 -0.8581 -0.0235
vn -0.4618 -0.8659 0.1920
vn -0.4618 -0.8660 0.1920
vn -0.1108 -0.9461 0.3045
vn -0.1108 -0.9461 0.3043
vn -0.1108 -0.9461 0.3044
vn -0.1108 -0.9461 0.3042
vn -0.1302 -0.9247 0.3577
vn -0.1302 -0.9248 0.3575
vn -0.1302 -0.9247 0.3578
vn -0.5031 -0.8320 0.2339
vn -0.5695 -0.8205 -0.0494
vn -0.2659 -0.9104 -0.3170
vn -0.2661 -0.9103 -0.3171
vn 0.1072 -0.9038 -0.4144
vn 0.1839 -0.9047 -0.3844
vn 0.3926 -0.9171 -0.0693
vn 0.3927 -0.9170 -0.0693
vn 0.3930 -0.9169 -0.0692
vn 0.2232 -0.9201 0.3218
vn 0.2799 -0.9193 0.2765
vn 0.2434 -0.9397 0.2401
vn 0.1938 -0.9402 0.2801
vn 0.3379 -0.9393 -0.0596
vn 0.1572 -0.9309 -0.3297
vn 0.0922 -0.9303 -0.3550
vn -0.2282 -0.9348 -0.2720
vn -0.2283 -0.9348 -0.2721
vn -0.2282 -0.9349 -0.2720
vn -0.4989 -0.8656 -0.0432
vn -0.4422 -0.8730 0.2057
vn -0.1132 -0.9436 0.3112
vn -0.1132 -0.9436 0.3111
vn -0.1133 -0.9435 0.3114
vn -0.2817 -0.5672 0.7739
vn -0.2817 -0.5674 0.7738
vn -0.2817 -0.5673 0.7738
vn -0.6966 -0.6658 0.2673
vn -0.6967 -0.6658 0.2669
vn -0.4648 -0.8844 -0.0418
vn -0.5116 -0.7240 -0.4627
vn 0.0523 -0.5359 -0.8427
vn 0.4635 -0.7303 -0.5019
vn 0.2955 -0.9539 -0.0521
vn 0.2959 -0.9538 -0.0521
vn 0.2958 -0.9538 -0.0522
vn 0.3663 -0.7441 0.5587
vn 0.2118 -0.9540 0.2122
vn 0.3372 -0.1693 -0.9261
vn 0.8536 -0.1693 -0.4926
vn 0.8536 -0.1693 -0.4927
vn 0.8534 -0.1693 -0.4929
vn 0.9706 -0.1694 0.1712
vn 0.9706 -0.1693 0.1712
vn 0.6339 -0.1693 0.7547
vn 0.6336 -0.1692 0.7550
vn 0.6338 -0.1693 0.7548
vn 0.6335 -0.1692 0.7550
vn 0.0000 -0.1692 0.9856
vn 0.0000 -0.1695 0.9855
vn -0.6336 -0.1693 0.7549
vn -0.6337 -0.1692 0.7549
vn -0.6336 -0.1692 0.7549
vn -0.9706 -0.1692 0.1712
vn -0.3369 -0.1693 -0.9262
vn -0.3373 -0.1693 -0.9260
vn -0.3372 -0.1693 -0.9261
vn -0.8536 -0.1694 -0.4927
vn -0.8535 -0.1692 -0.4928
vn -0.8535 -0.1692 -0.4929
vn -0.8536 -0.1693 -0.4927
vn 0.0000 -1.0000 0.0000
vn -0.8530 0.1728 -0.4924
vn -0.8529 0.1729 -0.4926
vn -0.8530 0.1729 -0.4925
vn -0.8530 0.1729 -0.4924
vn -0.3367 0.1729 -0.9256
vn -0.3366 0.1730 -0.9256
vn -0.9700 0.1729 0.1711
vn -0.6330 0.1729 0.7546
vn -0.6333 0.1729 0.7544
vn 0.0000 0.1729 0.9849
vn 0.6331 0.1730 0.7545
vn 0.6330 0.1729 0.7546
vn 0.6332 0.1730 0.7545
vn 0.6331 0.1729 0.7545
vn 0.9699 0.1730 0.1711
vn 0.8530 0.1729 -0.4924
vn 0.8530 0.1730 -0.4923
vn 0.8531 0.1730 -0.4923
vn 0.3370 0.1729 -0.9255
vn 0.3369 0.1729 -0.9255
vn 0.3368 0.1729 -0.9256
usemtl lambert1
s 1
f 1//1 2//1 3//2
f 3//2 2//1 4//2
f 5//3 6//3 2//3
f 4//3 2//3 6//3
f 5//4 7//4 6//4
f 6//4 7//4 8//4
f 7//5 9//5 8//6
f 8//6 9//5 10//7
f 9//8 11//8 10//8
f 10//8 11//8 12//8
f 11//9 13//9 12//9
f 12//9 13//9 14//9
f 13//10 15//10 14//11
f 14//11 15//10 16//12
f 2//13 1//13 5//14
f 5//14 1//13 7//13
f 1//13 17//13 7//13
f 17//13 15//13 7//13
f 15//13 13//13 7//13
f 13//13 11//14 7//13
f 11//14 9//13 7//13
f 17//15 1//15 18//15
f 18//15 1//15 3//15
f 15//16 17//16 16//16
f 16//16 17//16 18//16
f 19//17 20//17 21//17
f 21//17 20//17 22//17
f 20//17 23//17 22//17
f 23//17 24//17 22//17
f 24//17 25//17 22//17
f 25//17 26//17 22//17
f 26//17 27//17 22//17
f 28//18 29//19 30//19
f 30//19 29//19 31//18
f 31//20 29//21 32//22
f 32//22 29//21 33//20
f 34//23 28//23 35//23
f 35//23 28//23 30//24
f 36//25 37//26 35//25
f 35//25 37//26 34//25
f 38//27 37//28 39//29
f 39//29 37//28 36//27
f 40//30 38//30 41//30
f 41//30 38//30 39//31
f 42//32 43//33 41//32
f 41//32 43//33 40//32
f 44//34 43//34 45//34
f 45//34 43//34 42//34
f 32//35 33//35 45//35
f 45//35 33//35 44//35
f 46//36 47//36 48//36
f 48//36 47//36 49//36
f 49//37 47//37 50//37
f 50//37 47//37 51//37
f 52//38 46//39 53//40
f 53//40 46//39 48//41
f 54//42 55//42 53//42
f 53//42 55//42 52//42
f 56//43 55//43 57//43
f 57//43 55//43 54//43
f 58//44 59//45 57//46
f 57//46 59//45 56//45
f 60//47 61//47 58//47
f 58//47 61//47 59//47
f 62//48 61//48 63//48
f 63//48 61//48 60//48
f 50//49 51//50 63//49
f 63//49 51//50 62//51
f 64//52 65//53 66//52
f 66//52 65//53 67//53
f 67//54 68//54 66//54
f 66//54 68//54 69//54
f 69//55 68//55 70//55
f 70//55 68//55 71//55
f 71//56 72//57 70//58
f 70//58 72//57 73//58
f 72//59 74//59 73//59
f 73//59 74//59 75//59
f 75//60 74//60 76//60
f 76//60 74//60 77//60
f 77//61 78//62 76//63
f 76//63 78//62 79//64
f 80//65 81//65 64//65
f 64//65 81//65 65//65
f 78//66 81//66 79//66
f 79//66 81//66 80//66
f 82//67 83//67 84//67
f 84//67 83//67 85//67
f 85//68 83//68 86//68
f 86//68 83//68 87//68
f 88//69 82//70 89//71
f 89//71 82//70 84//71
f 90//72 91//73 89//72
f 89//72 91//73 88//74
f 92//75 91//75 93//75
f 93//75 91//75 90//75
f 94//76 92//76 95//76
f 95//76 92//76 93//76
f 96//77 97//77 95//77
f 95//77 97//77 94//77
f 98//78 97//78 99//78
f 99//78 97//78 96//78
f 86//79 87//79 99//79
f 99//79 87//79 98//80
f 100//81 101//81 102//81
f 102//81 101//81 103//82
f 103//83 104//83 102//83
f 102//83 104//83 105//83
f 105//84 104//84 106//85
f 106//85 104//84 107//84
f 107//86 108//87 106//87
f 106//87 108//87 109//87
f 108//88 110//88 109//88
f 109//88 110//88 111//88
f 111//89 110//89 112//90
f 112//90 110//89 113//89
f 113//91 114//92 112//92
f 112//92 114//92 115//92
f 116//93 117//93 100//94
f 100//94 117//93 101//93
f 114//95 117//96 115//97
f 115//97 117//96 116//95
f 46//98 16//98 47//98
f 47//98 16//98 18//98
f 18//99 3//99 47//99
f 47//99 3//99 51//99
f 52//100 14//101 46//102
f 46//102 14//101 16//103
f 12//104 14//104 55//104
f 55//104 14//104 52//104
f 56//105 10//105 55//105
f 55//105 10//105 12//105
f 8//106 10//107 59//108
f 59//108 10//107 56//106
f 6//109 8//109 61//109
f 61//109 8//109 59//109
f 62//110 4//110 61//110
f 61//110 4//110 6//110
f 3//111 4//112 51//111
f 51//111 4//112 62//112
f 50//113 63//114 65//113
f 65//113 63//114 67//114
f 63//115 60//115 67//115
f 67//115 60//115 68//115
f 60//116 58//116 68//116
f 68//116 58//116 71//116
f 58//117 57//118 71//119
f 71//119 57//118 72//120
f 72//121 57//121 74//121
f 74//121 57//121 54//122
f 54//123 53//123 74//123
f 74//123 53//123 77//123
f 77//124 53//125 78//125
f 78//125 53//125 48//124
f 49//126 50//126 81//126
f 81//126 50//126 65//126
f 78//127 48//127 81//127
f 81//127 48//127 49//127
f 82//128 79//128 83//128
f 83//128 79//128 80//128
f 80//129 64//129 83//129
f 83//129 64//129 87//129
f 88//130 76//131 82//132
f 82//132 76//131 79//132
f 75//133 76//133 91//133
f 91//133 76//133 88//133
f 92//134 73//134 91//134
f 91//134 73//134 75//134
f 70//135 73//136 94//136
f 94//136 73//136 92//135
f 69//137 70//137 97//137
f 97//137 70//137 94//137
f 66//138 69//138 98//139
f 98//139 69//138 97//138
f 64//140 66//141 87//142
f 87//142 66//141 98//143
f 86//144 99//145 101//146
f 101//146 99//145 103//145
f 99//147 96//147 103//147
f 103//147 96//147 104//147
f 96//148 95//148 104//148
f 104//148 95//148 107//148
f 95//149 93//150 107//149
f 107//149 93//150 108//150
f 108//151 93//151 110//151
f 110//151 93//151 90//151
f 90//152 89//152 110//152
f 110//152 89//152 113//152
f 113//153 89//154 114//155
f 114//155 89//154 84//155
f 85//156 86//156 117//156
f 117//156 86//156 101//156
f 114//157 84//157 117//157
f 117//157 84//157 85//157
f 28//158 115//158 29//158
f 29//158 115//158 116//158
f 116//159 100//159 29//159
f 29//159 100//159 33//159
f 34//160 112//160 28//160
f 28//160 112//160 115//160
f 37//161 111//161 34//161
f 34//161 111//161 112//161
f 38//162 109//162 37//162
f 37//162 109//162 111//162
f 106//163 109//164 40//163
f 40//163 109//164 38//165
f 105//166 106//166 43//166
f 43//166 106//166 40//166
f 102//167 105//167 44//167
f 44//167 105//167 43//167
f 100//168 102//169 33//168
f 33//168 102//169 44//170
f 32//171 45//172 20//171
f 20//171 45//172 23//173
f 23//174 45//174 24//174
f 24//174 45//174 42//175
f 42//176 41//176 24//176
f 24//176 41//176 25//176
f 41//177 39//177 25//177
f 25//177 39//177 26//177
f 26//178 39//178 27//178
f 27//178 39//178 36//178
f 27//179 36//179 22//179
f 22//179 36//179 35//179
f 22//180 35//181 21//182
f 21//182 35//181 30//182
f 31//183 32//183 19//183
f 19//183 32//183 20//183
f 21//184 30//184 19//184
f 19//184 30//184 31//184
f 118//185 119//185 120//185
f 120//185 119//185 121//185
f 120//186 121//187 122//188
f 122//188 121//187 123//187
f 122//189 123//189 124//189
f 124//189 123//189 125//190
f 124//191 125//192 126//193
f 126//193 125//192 127//194
f 126//195 127//196 128//195
f 128//195 127//196 129//196
f 128//197 129//198 130//199
f 130//199 129//198 131//198
f 130//200 131//200 132//200
f 132//200 131//200 133//200
f 121//13 119//13 123//13
f 119//13 134//13 123//13
f 134//13 133//13 123//13
f 133//13 131//13 123//13
f 131//13 129//13 123//13
f 129//13 127//13 123//13
f 127//13 125//13 123//13
f 135//201 134//202 118//202
f 118//202 134//202 119//203
f 132//204 133//205 135//206
f 135//206 133//205 134//207
f 136//208 137//208 138//208
f 137//208 139//208 138//208
f 139//208 140//208 138//208
f 140//208 141//208 138//208
f 141//208 142//208 138//208
f 142//208 143//208 138//208
f 143//208 144//208 138//208
f 144//209 132//210 138//211
f 138//211 132//210 135//212
f 138//213 135//214 136//213
f 136//213 135//214 118//214
f 143//215 130//215 144//215
f 144//215 130//215 132//215
f 142//216 128//216 143//217
f 143//217 128//216 130//216
f 141//218 126//218 142//218
f 142//218 126//218 128//218
f 140//219 124//220 141//221
f 141//221 124//220 126//222
f 139//223 122//223 140//223
f 140//223 122//223 124//223
f 137//224 120//225 139//224
f 139//224 120//225 122//226
f 136//227 118//228 137//228
f 137//228 118//228 120//229
